<mxfile host="Electron" modified="2024-08-15T04:05:07.501Z" agent="Mozilla/5.0 (Windows NT 10.0; Win64; x64) AppleWebKit/537.36 (KHTML, like Gecko) draw.io/22.1.21 Chrome/120.0.6099.109 Electron/28.1.0 Safari/537.36" etag="742W0b36vPKB-J8v6z12" version="22.1.21" type="device">
  <diagram id="C5RBs43oDa-KdzZeNtuy" name="Page-1">
    <mxGraphModel dx="1877" dy="629" grid="1" gridSize="10" guides="1" tooltips="1" connect="1" arrows="1" fold="1" page="1" pageScale="1" pageWidth="827" pageHeight="1169" math="0" shadow="0">
      <root>
        <mxCell id="WIyWlLk6GJQsqaUBKTNV-0" />
        <mxCell id="WIyWlLk6GJQsqaUBKTNV-1" parent="WIyWlLk6GJQsqaUBKTNV-0" />
        <mxCell id="2uy2c3E3zv76oh77G04B-7" style="edgeStyle=orthogonalEdgeStyle;rounded=0;orthogonalLoop=1;jettySize=auto;html=1;exitX=0;exitY=0.5;exitDx=0;exitDy=0;entryX=1;entryY=0.5;entryDx=0;entryDy=0;" parent="WIyWlLk6GJQsqaUBKTNV-1" source="2uy2c3E3zv76oh77G04B-0" target="2uy2c3E3zv76oh77G04B-1" edge="1">
          <mxGeometry relative="1" as="geometry" />
        </mxCell>
        <mxCell id="2uy2c3E3zv76oh77G04B-8" style="edgeStyle=orthogonalEdgeStyle;rounded=0;orthogonalLoop=1;jettySize=auto;html=1;exitX=0.5;exitY=0;exitDx=0;exitDy=0;entryX=1;entryY=0.5;entryDx=0;entryDy=0;" parent="WIyWlLk6GJQsqaUBKTNV-1" source="2uy2c3E3zv76oh77G04B-0" target="2uy2c3E3zv76oh77G04B-2" edge="1">
          <mxGeometry relative="1" as="geometry" />
        </mxCell>
        <mxCell id="cbCmHKl8900TszNjfEYq-7" style="edgeStyle=orthogonalEdgeStyle;rounded=0;orthogonalLoop=1;jettySize=auto;html=1;exitX=1;exitY=0.75;exitDx=0;exitDy=0;entryX=0;entryY=0.75;entryDx=0;entryDy=0;" edge="1" parent="WIyWlLk6GJQsqaUBKTNV-1" source="2uy2c3E3zv76oh77G04B-0" target="cbCmHKl8900TszNjfEYq-5">
          <mxGeometry relative="1" as="geometry" />
        </mxCell>
        <mxCell id="cbCmHKl8900TszNjfEYq-9" value="GND" style="edgeLabel;html=1;align=center;verticalAlign=middle;resizable=0;points=[];" vertex="1" connectable="0" parent="cbCmHKl8900TszNjfEYq-7">
          <mxGeometry x="-0.0286" y="-3" relative="1" as="geometry">
            <mxPoint as="offset" />
          </mxGeometry>
        </mxCell>
        <mxCell id="2uy2c3E3zv76oh77G04B-0" value="ESP32 - CAM&lt;br&gt;(5V)" style="rounded=0;whiteSpace=wrap;html=1;" parent="WIyWlLk6GJQsqaUBKTNV-1" vertex="1">
          <mxGeometry x="600" y="290" width="120" height="60" as="geometry" />
        </mxCell>
        <mxCell id="2uy2c3E3zv76oh77G04B-5" style="edgeStyle=orthogonalEdgeStyle;rounded=0;orthogonalLoop=1;jettySize=auto;html=1;exitX=1;exitY=0.5;exitDx=0;exitDy=0;entryX=0;entryY=0.5;entryDx=0;entryDy=0;" parent="WIyWlLk6GJQsqaUBKTNV-1" source="2uy2c3E3zv76oh77G04B-1" target="2uy2c3E3zv76oh77G04B-0" edge="1">
          <mxGeometry relative="1" as="geometry" />
        </mxCell>
        <mxCell id="2uy2c3E3zv76oh77G04B-6" value="wifi" style="edgeLabel;html=1;align=center;verticalAlign=middle;resizable=0;points=[];" parent="2uy2c3E3zv76oh77G04B-5" vertex="1" connectable="0">
          <mxGeometry x="-0.0888" relative="1" as="geometry">
            <mxPoint as="offset" />
          </mxGeometry>
        </mxCell>
        <mxCell id="2uy2c3E3zv76oh77G04B-12" style="edgeStyle=orthogonalEdgeStyle;rounded=0;orthogonalLoop=1;jettySize=auto;html=1;exitX=0.5;exitY=1;exitDx=0;exitDy=0;entryX=0.5;entryY=0;entryDx=0;entryDy=0;" parent="WIyWlLk6GJQsqaUBKTNV-1" source="2uy2c3E3zv76oh77G04B-1" target="2uy2c3E3zv76oh77G04B-11" edge="1">
          <mxGeometry relative="1" as="geometry" />
        </mxCell>
        <mxCell id="2uy2c3E3zv76oh77G04B-15" value="SPI" style="edgeLabel;html=1;align=center;verticalAlign=middle;resizable=0;points=[];" parent="2uy2c3E3zv76oh77G04B-12" vertex="1" connectable="0">
          <mxGeometry x="0.1556" y="1" relative="1" as="geometry">
            <mxPoint as="offset" />
          </mxGeometry>
        </mxCell>
        <mxCell id="2uy2c3E3zv76oh77G04B-22" style="edgeStyle=orthogonalEdgeStyle;rounded=0;orthogonalLoop=1;jettySize=auto;html=1;exitX=0.5;exitY=0;exitDx=0;exitDy=0;entryX=0.5;entryY=1;entryDx=0;entryDy=0;" parent="WIyWlLk6GJQsqaUBKTNV-1" source="2uy2c3E3zv76oh77G04B-1" target="2uy2c3E3zv76oh77G04B-20" edge="1">
          <mxGeometry relative="1" as="geometry" />
        </mxCell>
        <mxCell id="2uy2c3E3zv76oh77G04B-23" value="GPIO" style="edgeLabel;html=1;align=center;verticalAlign=middle;resizable=0;points=[];" parent="2uy2c3E3zv76oh77G04B-22" vertex="1" connectable="0">
          <mxGeometry x="-0.0457" relative="1" as="geometry">
            <mxPoint as="offset" />
          </mxGeometry>
        </mxCell>
        <mxCell id="cbCmHKl8900TszNjfEYq-2" style="edgeStyle=orthogonalEdgeStyle;rounded=0;orthogonalLoop=1;jettySize=auto;html=1;exitX=0;exitY=0.75;exitDx=0;exitDy=0;entryX=1;entryY=0.75;entryDx=0;entryDy=0;" edge="1" parent="WIyWlLk6GJQsqaUBKTNV-1" source="2uy2c3E3zv76oh77G04B-1" target="cbCmHKl8900TszNjfEYq-0">
          <mxGeometry relative="1" as="geometry" />
        </mxCell>
        <mxCell id="cbCmHKl8900TszNjfEYq-4" value="GND" style="edgeLabel;html=1;align=center;verticalAlign=middle;resizable=0;points=[];" vertex="1" connectable="0" parent="cbCmHKl8900TszNjfEYq-2">
          <mxGeometry x="0.1714" y="3" relative="1" as="geometry">
            <mxPoint as="offset" />
          </mxGeometry>
        </mxCell>
        <mxCell id="2uy2c3E3zv76oh77G04B-1" value="ESP32 - WROOM-32D&lt;br&gt;(3.3V)" style="rounded=0;whiteSpace=wrap;html=1;" parent="WIyWlLk6GJQsqaUBKTNV-1" vertex="1">
          <mxGeometry x="60" y="290" width="130" height="60" as="geometry" />
        </mxCell>
        <mxCell id="2uy2c3E3zv76oh77G04B-9" style="edgeStyle=orthogonalEdgeStyle;rounded=0;orthogonalLoop=1;jettySize=auto;html=1;exitX=1;exitY=0.5;exitDx=0;exitDy=0;entryX=0.5;entryY=0;entryDx=0;entryDy=0;" parent="WIyWlLk6GJQsqaUBKTNV-1" source="2uy2c3E3zv76oh77G04B-2" target="2uy2c3E3zv76oh77G04B-0" edge="1">
          <mxGeometry relative="1" as="geometry" />
        </mxCell>
        <mxCell id="2uy2c3E3zv76oh77G04B-10" value="wifi" style="edgeLabel;html=1;align=center;verticalAlign=middle;resizable=0;points=[];" parent="2uy2c3E3zv76oh77G04B-9" vertex="1" connectable="0">
          <mxGeometry x="0.3287" y="-1" relative="1" as="geometry">
            <mxPoint as="offset" />
          </mxGeometry>
        </mxCell>
        <mxCell id="2uy2c3E3zv76oh77G04B-2" value="Wifi router" style="rounded=0;whiteSpace=wrap;html=1;" parent="WIyWlLk6GJQsqaUBKTNV-1" vertex="1">
          <mxGeometry x="354" y="160" width="120" height="60" as="geometry" />
        </mxCell>
        <mxCell id="2uy2c3E3zv76oh77G04B-3" value="Thingsboard" style="ellipse;shape=cloud;whiteSpace=wrap;html=1;" parent="WIyWlLk6GJQsqaUBKTNV-1" vertex="1">
          <mxGeometry x="590" y="40" width="120" height="80" as="geometry" />
        </mxCell>
        <mxCell id="2uy2c3E3zv76oh77G04B-4" style="edgeStyle=orthogonalEdgeStyle;rounded=0;orthogonalLoop=1;jettySize=auto;html=1;exitX=0.5;exitY=0;exitDx=0;exitDy=0;entryX=0.16;entryY=0.55;entryDx=0;entryDy=0;entryPerimeter=0;" parent="WIyWlLk6GJQsqaUBKTNV-1" source="2uy2c3E3zv76oh77G04B-2" target="2uy2c3E3zv76oh77G04B-3" edge="1">
          <mxGeometry relative="1" as="geometry">
            <mxPoint x="354" y="136" as="sourcePoint" />
            <mxPoint x="549.2" y="60" as="targetPoint" />
            <Array as="points">
              <mxPoint x="414" y="84" />
            </Array>
          </mxGeometry>
        </mxCell>
        <mxCell id="2uy2c3E3zv76oh77G04B-11" value="TFT LCD&lt;br&gt;(3.3V)" style="rounded=0;whiteSpace=wrap;html=1;" parent="WIyWlLk6GJQsqaUBKTNV-1" vertex="1">
          <mxGeometry x="65" y="440" width="120" height="60" as="geometry" />
        </mxCell>
        <mxCell id="2uy2c3E3zv76oh77G04B-18" style="edgeStyle=orthogonalEdgeStyle;rounded=0;orthogonalLoop=1;jettySize=auto;html=1;exitX=0.5;exitY=0;exitDx=0;exitDy=0;entryX=0.5;entryY=1;entryDx=0;entryDy=0;" parent="WIyWlLk6GJQsqaUBKTNV-1" source="2uy2c3E3zv76oh77G04B-17" target="2uy2c3E3zv76oh77G04B-0" edge="1">
          <mxGeometry relative="1" as="geometry" />
        </mxCell>
        <mxCell id="2uy2c3E3zv76oh77G04B-19" value="GPIO" style="edgeLabel;html=1;align=center;verticalAlign=middle;resizable=0;points=[];" parent="2uy2c3E3zv76oh77G04B-18" vertex="1" connectable="0">
          <mxGeometry x="0.136" y="-4" relative="1" as="geometry">
            <mxPoint as="offset" />
          </mxGeometry>
        </mxCell>
        <mxCell id="2uy2c3E3zv76oh77G04B-17" value="2 Nút bấm" style="rounded=0;whiteSpace=wrap;html=1;" parent="WIyWlLk6GJQsqaUBKTNV-1" vertex="1">
          <mxGeometry x="600" y="400" width="120" height="60" as="geometry" />
        </mxCell>
        <mxCell id="2uy2c3E3zv76oh77G04B-20" value="Speaker" style="rounded=0;whiteSpace=wrap;html=1;" parent="WIyWlLk6GJQsqaUBKTNV-1" vertex="1">
          <mxGeometry x="65" y="160" width="120" height="60" as="geometry" />
        </mxCell>
        <mxCell id="cbCmHKl8900TszNjfEYq-1" style="edgeStyle=orthogonalEdgeStyle;rounded=0;orthogonalLoop=1;jettySize=auto;html=1;exitX=1;exitY=0.25;exitDx=0;exitDy=0;entryX=0;entryY=0.25;entryDx=0;entryDy=0;" edge="1" parent="WIyWlLk6GJQsqaUBKTNV-1" source="cbCmHKl8900TszNjfEYq-0" target="2uy2c3E3zv76oh77G04B-1">
          <mxGeometry relative="1" as="geometry" />
        </mxCell>
        <mxCell id="cbCmHKl8900TszNjfEYq-3" value="3.3V" style="edgeLabel;html=1;align=center;verticalAlign=middle;resizable=0;points=[];" vertex="1" connectable="0" parent="cbCmHKl8900TszNjfEYq-1">
          <mxGeometry x="-0.0857" y="-3" relative="1" as="geometry">
            <mxPoint as="offset" />
          </mxGeometry>
        </mxCell>
        <mxCell id="cbCmHKl8900TszNjfEYq-0" value="Nguồn 3.3V&lt;br&gt;GND&lt;br&gt;(Laptop)" style="rounded=0;whiteSpace=wrap;html=1;" vertex="1" parent="WIyWlLk6GJQsqaUBKTNV-1">
          <mxGeometry x="-130" y="290" width="120" height="60" as="geometry" />
        </mxCell>
        <mxCell id="cbCmHKl8900TszNjfEYq-6" style="edgeStyle=orthogonalEdgeStyle;rounded=0;orthogonalLoop=1;jettySize=auto;html=1;exitX=0;exitY=0.25;exitDx=0;exitDy=0;entryX=1;entryY=0.25;entryDx=0;entryDy=0;" edge="1" parent="WIyWlLk6GJQsqaUBKTNV-1" source="cbCmHKl8900TszNjfEYq-5" target="2uy2c3E3zv76oh77G04B-0">
          <mxGeometry relative="1" as="geometry" />
        </mxCell>
        <mxCell id="cbCmHKl8900TszNjfEYq-8" value="5V" style="edgeLabel;html=1;align=center;verticalAlign=middle;resizable=0;points=[];" vertex="1" connectable="0" parent="cbCmHKl8900TszNjfEYq-6">
          <mxGeometry y="-2" relative="1" as="geometry">
            <mxPoint as="offset" />
          </mxGeometry>
        </mxCell>
        <mxCell id="cbCmHKl8900TszNjfEYq-5" value="Adapter 5V&lt;br&gt;GND" style="rounded=0;whiteSpace=wrap;html=1;" vertex="1" parent="WIyWlLk6GJQsqaUBKTNV-1">
          <mxGeometry x="790" y="290" width="120" height="60" as="geometry" />
        </mxCell>
        <mxCell id="cbCmHKl8900TszNjfEYq-11" style="edgeStyle=orthogonalEdgeStyle;rounded=0;orthogonalLoop=1;jettySize=auto;html=1;exitX=0;exitY=0.5;exitDx=0;exitDy=0;entryX=1;entryY=0.5;entryDx=0;entryDy=0;" edge="1" parent="WIyWlLk6GJQsqaUBKTNV-1" source="cbCmHKl8900TszNjfEYq-10" target="cbCmHKl8900TszNjfEYq-5">
          <mxGeometry relative="1" as="geometry" />
        </mxCell>
        <mxCell id="cbCmHKl8900TszNjfEYq-10" value="Ổ cắm 220V" style="rounded=0;whiteSpace=wrap;html=1;" vertex="1" parent="WIyWlLk6GJQsqaUBKTNV-1">
          <mxGeometry x="970" y="290" width="120" height="60" as="geometry" />
        </mxCell>
      </root>
    </mxGraphModel>
  </diagram>
</mxfile>
